# xmcd
#
# Track frame offsets:
#   150
#   19417
#   39395
#   61580
#   82377
#   103830
#   134865
#   153347
#   168820
#   187917
#   215826
#   234423
#   252563
#
# Disc length: 3614 seconds
#
# Revision: 0
# Processed by: cddbd v1.5.2PL0 Copyright (c) Steve Scherf et al.
# Submitted via: GXTranscoder 2.0.1939
#
DISCID=b80e1c0d
DTITLE=Chris Rea - Best of - new light through old windows
DYEAR=1900
DGENRE=Blues
TTITLE0=let's dance
TTITLE1=working on it
TTITLE2=ace oh hearts
TTITLE3=Josephine
TTITLE4=candles
TTITLE5=on the beach
TTITLE6=fool (if you think it's over)
TTITLE7=I can hear your heartbeat
TTITLE8=Shamrock diaries
TTITLE9=steel river
TTITLE10=windy town
TTITLE11=driving home fpr christmas
TTITLE12=stainsby girls
EXTD=
EXTT0=
EXTT1=
EXTT2=
EXTT3=
EXTT4=
EXTT5=
EXTT6=
EXTT7=
EXTT8=
EXTT9=
EXTT10=
EXTT11=
EXTT12=
PLAYORDER=
